<svg xmlns="http://www.w3.org/2000/svg" width="100" height="30" version="1.1" viewBox="731 444.01 419.03 105.44">
    <path d="M 906.547 534.229 C 903.937 540.978, 901.574 547.063, 901.294 547.750 C 900.952 548.591, 901.803 549, 903.893 549 C 905.988 549, 907 548.511, 907 547.500 C 907 546.394, 908.155 546, 911.393 546 C 914.375 546, 915.971 546.482, 916.362 547.500 C 916.832 548.726, 922 549.795, 922 548.666 C 922 548.157, 911.913 522.580, 911.581 522.248 C 911.422 522.088, 909.156 527.480, 906.547 534.229 M 778 536 L 778 549 780.500 549 L 783 549 783 536 L 783 523 780.500 523 L 778 523 778 536 M 789 536 L 789 549 791.500 549 C 793.965 549, 794 548.883, 794 540.754 L 794 532.509 799.693 540.754 C 804.042 547.055, 805.930 549, 807.693 549 C 809.984 549, 810 548.910, 810 536 L 810 523 807.540 523 C 805.151 523, 805.073 523.235, 804.790 531.197 L 804.500 539.394 799.124 531.197 C 794.893 524.746, 793.242 523, 791.374 523 L 789 523 789 536 M 829 536 L 829 549 831.500 549 C 833.824 549, 834 548.658, 834 544.132 L 834 539.263 838.078 538.716 C 843.599 537.976, 846 535.612, 846 530.918 C 846 525.441, 842.566 523, 834.865 523 L 829 523 829 536 M 850 536 L 850 549 852.500 549 L 855 549 855 536 L 855 523 852.500 523 L 850 523 850 536 M 859 525.450 C 859 527.717, 859.411 527.923, 864.502 528.200 L 870.005 528.500 864.002 538.259 C 860.701 543.626, 858 548.239, 858 548.509 C 858 548.779, 867.450 549, 879 549 L 900 549 900 546.548 C 900 544.255, 899.616 544.076, 894.087 543.798 L 888.175 543.500 894.070 534 C 897.313 528.775, 899.974 524.163, 899.983 523.750 C 899.992 523.337, 895.500 523, 890 523 L 880 523 880 525.500 C 880 527.864, 880.300 528, 885.500 528 C 888.525 528, 891 528.260, 891 528.577 C 891 528.894, 888.413 533.496, 885.250 538.803 C 880.840 546.204, 879.426 547.934, 879.180 546.226 C 878.891 544.211, 878.299 544, 872.930 544 C 869.669 544, 867 543.767, 867 543.482 C 867 543.198, 869.274 539.299, 872.053 534.819 C 880.231 521.632, 880.580 523, 869.035 523 C 859.052 523, 859 523.013, 859 525.450 M 935.448 524.670 C 935.846 525.677, 938.002 531.450, 940.239 537.500 C 942.477 543.550, 944.620 548.859, 945.003 549.299 C 945.385 549.738, 947.172 546.138, 948.975 541.299 C 950.778 536.459, 952.581 532.137, 952.983 531.693 C 953.385 531.249, 955.187 534.972, 956.987 539.965 C 958.788 544.958, 960.559 549.228, 960.925 549.453 C 961.520 549.822, 971.038 525.568, 971.011 523.750 C 971.005 523.337, 969.912 523, 968.582 523 C 966.493 523, 965.868 523.888, 964 529.500 C 962.810 533.075, 961.424 536, 960.918 536 C 960.413 536, 960 535.567, 960 535.038 C 960 534.508, 959.058 531.557, 957.907 528.480 C 956.028 523.460, 955.544 522.917, 953.197 523.193 C 950.966 523.455, 950.194 524.518, 947.962 530.403 L 945.344 537.306 942.922 530.403 C 940.751 524.215, 940.201 523.466, 937.612 523.170 C 935.161 522.890, 934.834 523.117, 935.448 524.670 M 975 536 L 975 549 983.500 549 C 991.900 549, 992 548.971, 992 546.500 C 992 544.111, 991.733 544, 986 544 C 980.303 544, 980 543.877, 980 541.555 C 980 539.347, 980.461 539.080, 984.750 538.805 C 988.803 538.545, 989.547 538.170, 989.820 536.250 C 990.115 534.171, 989.755 534, 985.070 534 C 980.103 534, 980 533.939, 980 531 L 980 528 986 528 C 991.733 528, 992 527.889, 992 525.500 C 992 523.029, 991.900 523, 983.500 523 L 975 523 975 536 M 1007 525.500 C 1007 527.500, 1007.500 528, 1009.500 528 L 1012 528 1012 538.500 L 1012 549 1014.500 549 L 1017 549 1017 538.500 L 1017 528 1019.500 528 C 1021.500 528, 1022 527.500, 1022 525.500 C 1022 523.056, 1021.833 523, 1014.500 523 C 1007.167 523, 1007 523.056, 1007 525.500 M 1025 535.887 L 1025 549 1027.500 549 C 1029.833 549, 1030 548.667, 1030 544 C 1030 540.247, 1030.370 539, 1031.483 539 C 1032.299 539, 1034.106 541.250, 1035.500 544 C 1037.515 547.977, 1038.542 549, 1040.517 549 C 1043.557 549, 1043.556 549.031, 1040.601 543.200 L 1038.202 538.466 1040.601 535.677 C 1043.485 532.325, 1043.659 529.036, 1041.120 525.900 C 1039.546 523.956, 1038.086 523.514, 1032.120 523.177 L 1025 522.774 1025 535.887 M 1048 533.858 C 1048 544.547, 1048.074 544.913, 1050.635 546.927 C 1054.480 549.952, 1061.327 549.764, 1064.545 546.545 C 1066.841 544.250, 1067 543.409, 1067 533.545 C 1067 523.004, 1066.999 523, 1064.535 523 C 1062.094 523, 1062.067 523.099, 1061.785 533.250 L 1061.500 543.500 1057.500 543.500 L 1053.500 543.500 1053 533.500 C 1052.528 524.067, 1052.372 523.482, 1050.250 523.180 C 1048.034 522.866, 1048 523.026, 1048 533.858 M 1074.455 525.455 C 1071.737 528.172, 1071.274 532.459, 1073.396 535.255 C 1074.129 536.221, 1076.477 537.614, 1078.614 538.351 C 1081.285 539.271, 1082.600 540.365, 1082.820 541.845 C 1083.077 543.581, 1082.634 544, 1080.538 544 C 1079.108 544, 1077.678 543.325, 1077.362 542.500 C 1076.509 540.279, 1072 540.552, 1072 542.826 C 1072 548.165, 1081.887 551.113, 1086 547 C 1090.186 542.814, 1087.005 534, 1081.308 534 C 1078.750 534, 1076.580 531.536, 1077.357 529.513 C 1078.103 527.569, 1081.391 527.562, 1083 529.500 C 1083.685 530.325, 1085.090 531, 1086.122 531 C 1088.750 531, 1088.512 527.830, 1085.686 525.174 C 1082.512 522.193, 1077.593 522.316, 1074.455 525.455 M 1091 525.500 C 1091 527.500, 1091.500 528, 1093.500 528 L 1096 528 1096 538.500 L 1096 549 1098.500 549 L 1101 549 1101 538.500 L 1101 528 1103.500 528 C 1105.500 528, 1106 527.500, 1106 525.500 C 1106 523.056, 1105.833 523, 1098.500 523 C 1091.167 523, 1091 523.056, 1091 525.500 M 834 530.937 C 834 533.451, 834.403 533.997, 836.250 533.985 C 841.978 533.946, 842.870 528.731, 837.242 528.187 C 834.223 527.895, 834 528.084, 834 530.937 M 1030.184 530.750 C 1030.426 532.861, 1031.101 533.570, 1033.086 533.801 C 1034.524 533.968, 1036.242 533.413, 1036.958 532.551 C 1038.776 530.361, 1036.624 528, 1032.811 528 C 1030.189 528, 1029.902 528.301, 1030.184 530.750 M 910.141 538.025 C 908.673 542.236, 908.589 542, 911.567 542 C 913.767 542, 914.036 541.678, 913.446 539.750 C 911.992 534.997, 911.319 534.646, 910.141 538.025"
          stroke="none" fill="#30cb80" fill-rule="evenodd"/>
    <path d="M 899.713 445.250 C 896.072 454.340, 878 501.183, 878 501.530 C 878 501.789, 880.514 502, 883.587 502 C 888.876 502, 889.234 501.840, 890.306 499 L 891.438 496 900.771 496 L 910.104 496 911.150 499 C 912.138 501.834, 912.494 502, 917.598 502 C 920.929 502, 923 501.569, 923 500.876 C 923 499.072, 901.566 444.029, 900.857 444.014 C 900.503 444.006, 899.989 444.563, 899.713 445.250 M 732.250 445.595 C 731.535 445.922, 731 447.991, 731 450.428 C 731 453.702, 731.927 456.125, 735 460.879 C 737.200 464.283, 739 467.277, 739 467.534 C 739 467.790, 737.763 468.007, 736.250 468.015 C 731.028 468.044, 730.926 468.401, 731.224 485.575 L 731.500 501.500 736.750 501.802 L 742 502.105 742 490.552 L 742 479 747.750 478.994 C 755.473 478.987, 760.368 477.494, 764.466 473.895 C 768.615 470.253, 770.445 465.187, 769.576 459.753 C 767.982 449.783, 761.212 445.894, 744.536 445.370 C 738.466 445.179, 732.938 445.280, 732.250 445.595 M 775.698 445.635 C 775.314 446.019, 775 448.283, 775 450.667 C 775 454.815, 775.128 455, 778 455 L 781 455 781 473.500 L 781 492 778 492 C 775.064 492, 775 492.108, 775 497.032 L 775 502.063 786.750 501.782 L 798.500 501.500 798.500 497 C 798.500 492.654, 798.389 492.489, 795.250 492.187 L 792 491.873 792 473.437 L 792 455 795.055 455 C 798.075 455, 798.106 454.947, 797.805 450.250 L 797.500 445.500 786.948 445.218 C 781.145 445.063, 776.083 445.251, 775.698 445.635 M 803.667 445.667 C 803.300 446.033, 803 448.508, 803 451.167 L 803 456 812.107 456 C 818.990 456, 821.093 456.305, 820.719 457.250 C 820.446 457.938, 816.523 467.725, 812 479 C 807.477 490.275, 803.554 500.063, 803.281 500.750 C 802.897 501.721, 806.620 502, 819.945 502 L 837.105 502 836.802 496.750 L 836.500 491.500 827.750 491.211 C 822.938 491.052, 819 490.810, 819 490.673 C 819 490.536, 823.001 480.455, 827.891 468.270 C 832.782 456.086, 836.532 445.865, 836.225 445.558 C 835.428 444.761, 804.469 444.864, 803.667 445.667 M 841.667 445.667 C 841.300 446.033, 841 448.508, 841 451.167 L 841 456 850 456 C 854.950 456, 859 456.220, 859 456.488 C 859 456.756, 855.803 464.969, 851.896 474.738 C 847.989 484.507, 843.945 494.637, 842.910 497.250 L 841.029 502 858.067 502 L 875.105 502 874.802 496.750 L 874.500 491.500 865.850 491 L 857.199 490.500 866 468.500 C 870.840 456.400, 874.593 446.163, 874.341 445.750 C 873.774 444.823, 842.590 444.744, 841.667 445.667 M 967.204 447.128 C 954.763 453.286, 951.848 470.620, 961.610 480.393 C 972.154 490.949, 989.429 488.074, 995.910 474.685 C 1004.409 457.129, 984.878 438.379, 967.204 447.128 M 1003.803 445.530 C 1003.366 445.968, 1024.558 502.591, 1025.655 503.917 C 1025.845 504.146, 1026.272 504.061, 1026.605 503.729 C 1027.847 502.486, 1048.866 446.593, 1048.384 445.813 C 1047.840 444.932, 1004.675 444.658, 1003.803 445.530 M 1055.688 445.645 C 1055.310 446.024, 1055 458.858, 1055 474.167 L 1055 502 1074.552 502 L 1094.105 502 1093.802 496.750 L 1093.500 491.500 1079.750 491.222 L 1066 490.944 1066 484.972 L 1066 479 1077.552 479 L 1089.105 479 1088.802 473.750 L 1088.500 468.500 1077.250 468.217 L 1066 467.934 1066 461.967 L 1066 456 1079.552 456 L 1093.105 456 1092.802 450.750 L 1092.500 445.500 1074.438 445.228 C 1064.505 445.079, 1056.067 445.266, 1055.688 445.645 M 1103.667 445.667 C 1103.300 446.033, 1103 458.882, 1103 474.219 L 1103 502.105 1108.250 501.802 L 1113.500 501.500 1114 483.648 L 1114.500 465.796 1127 483.853 L 1139.500 501.911 1144.766 501.955 L 1150.031 502 1149.766 473.750 L 1149.500 445.500 1145 445.500 L 1140.500 445.500 1140 464 L 1139.500 482.500 1132.082 472 C 1111.523 442.898, 1113.352 445, 1108.599 445 C 1106.253 445, 1104.033 445.300, 1103.667 445.667 M 971.420 456.834 C 967.077 459.555, 965.393 464.030, 966.864 468.941 C 969.159 476.600, 978.346 478.808, 984.077 473.077 C 992.486 464.667, 981.474 450.535, 971.420 456.834 M 745.057 458.122 C 748.123 463.888, 751.392 468, 752.910 468 C 755.634 468, 759 465.034, 759 462.634 C 759 458.312, 756.728 456.680, 750.031 456.196 L 743.793 455.745 745.057 458.122 M 1020.984 463.750 C 1025.442 475.898, 1026.029 477.304, 1026.462 476.872 C 1026.872 476.462, 1034 457.085, 1034 456.381 C 1034 456.171, 1030.431 456, 1026.070 456 L 1018.140 456 1020.984 463.750 M 897.799 478.009 L 895.179 486 900.590 486 C 903.565 486, 906 485.637, 906 485.194 C 906 483.890, 901.799 471.568, 901.078 470.759 C 900.715 470.352, 899.240 473.614, 897.799 478.009 M 958 497.022 L 958 502.044 976.750 501.772 L 995.500 501.500 995.805 496.750 L 996.110 492 977.055 492 L 958 492 958 497.022"
          stroke="none" fill="#f47516" fill-rule="evenodd"/>
</svg>